<?xml version="1.0" standalone="no"?>
<!DOCTYPE svg PUBLIC "-//W3C//DTD SVG 20010904//EN"
 "http://www.w3.org/TR/2001/REC-SVG-20010904/DTD/svg10.dtd">
<svg version="1.0" xmlns="http://www.w3.org/2000/svg"
 width="873.000000pt" height="873.000000pt" viewBox="0 0 873.000000 873.000000"
 preserveAspectRatio="xMidYMid meet">
<metadata>
Created by potrace 1.14, written by Peter Selinger 2001-2017
</metadata>
<g transform="translate(0.000000,873.000000) scale(0.100000,-0.100000)"
fill="#000000" stroke="none">
<path d="M0 4365 l0 -4365 4365 0 4365 0 0 4365 0 4365 -4365 0 -4365 0 0
-4365z m8470 0 l0 -4105 -4105 0 -4105 0 0 4105 0 4105 4105 0 4105 0 0 -4105z"/>
<path d="M1533 5785 c-306 -55 -650 -280 -765 -501 -59 -113 -68 -162 -68
-384 0 -339 40 -502 163 -666 118 -157 342 -263 623 -296 118 -13 147 -4 159
53 11 51 -17 78 -126 119 -121 46 -177 80 -257 154 -109 103 -179 223 -224
387 -19 73 -22 108 -22 264 0 168 1 185 27 260 66 199 205 319 415 361 113 22
240 17 279 -12 60 -45 58 -10 58 -1044 0 -1033 2 -1005 -58 -1065 -36 -36
-114 -55 -228 -55 -51 0 -70 -4 -87 -20 -43 -41 -42 -149 3 -187 l26 -23 559
0 559 0 27 23 c50 43 44 179 -9 205 -12 6 -67 13 -122 15 -110 3 -152 18 -182
64 -16 25 -18 65 -20 438 l-3 410 46 39 47 40 436 -440 c240 -241 445 -456
456 -476 15 -30 17 -40 7 -50 -14 -14 -116 -27 -225 -27 -69 -1 -81 -4 -102
-26 -22 -21 -25 -33 -25 -92 1 -70 9 -91 47 -111 31 -17 1305 -17 1336 0 39
20 46 40 47 124 0 109 -14 122 -137 135 -176 19 -191 29 -512 322 -138 128
-981 991 -981 1005 1 4 43 35 94 70 127 86 217 161 406 340 316 298 500 412
667 412 47 0 58 4 85 30 29 29 30 34 26 100 -6 120 43 110 -553 110 l-512 0
-21 -23 c-18 -19 -22 -35 -22 -93 0 -38 6 -76 13 -85 17 -22 51 -39 81 -39 53
0 130 -23 153 -46 l24 -24 -20 -37 c-47 -91 -202 -244 -620 -611 l-242 -213 3
418 c3 459 4 464 65 492 15 7 84 16 152 20 155 9 161 14 161 130 0 68 -3 80
-23 99 l-23 22 -495 -1 c-358 -1 -514 -4 -566 -14z"/>
<path d="M5915 5764 c-253 -12 -475 -23 -493 -23 -21 -1 -42 -10 -57 -26 -22
-21 -25 -33 -25 -93 0 -54 4 -75 20 -94 19 -25 24 -26 162 -30 156 -5 178 -11
205 -61 17 -30 18 -95 18 -997 0 -877 -1 -968 -16 -995 -37 -66 -47 -70 -204
-73 -138 -3 -144 -4 -166 -29 -21 -21 -24 -35 -24 -95 0 -64 2 -72 29 -94 l28
-25 797 4 c775 3 798 4 876 24 647 173 946 566 947 1248 1 273 -33 468 -115
659 -57 132 -119 226 -218 330 -171 181 -393 296 -685 355 -239 48 -384 50
-1079 15z m697 -239 c473 -62 737 -313 823 -780 23 -121 31 -454 16 -580 -18
-140 -55 -268 -108 -375 -39 -78 -63 -111 -133 -181 -72 -73 -101 -94 -180
-132 -162 -78 -359 -115 -561 -104 -121 6 -180 21 -207 51 -48 52 -47 29 -50
1104 l-3 1012 145 0 c80 0 196 -7 258 -15z"/>
<path d="M4666 3565 c-117 -41 -168 -180 -112 -301 78 -168 330 -181 412 -22
22 42 29 142 15 195 -15 54 -55 101 -106 124 -48 22 -152 24 -209 4z"/>
</g>
</svg>
