<?xml version="1.0" standalone="no"?>
<!DOCTYPE svg PUBLIC "-//W3C//DTD SVG 20010904//EN"
 "http://www.w3.org/TR/2001/REC-SVG-20010904/DTD/svg10.dtd">
<svg version="1.0" xmlns="http://www.w3.org/2000/svg"
 width="1091.000000pt" height="1091.000000pt" viewBox="0 0 1091.000000 1091.000000"
 preserveAspectRatio="xMidYMid meet">
<metadata>
Created by potrace 1.14, written by Peter Selinger 2001-2017
</metadata>
<g transform="translate(0.000000,1091.000000) scale(0.100000,-0.100000)"
fill="#000000" stroke="none">
<path d="M0 5455 l0 -5455 5455 0 5455 0 0 5455 0 5455 -5455 0 -5455 0 0
-5455z m10605 5276 c54 -18 110 -77 127 -131 20 -67 20 -10223 0 -10290 -18
-57 -75 -114 -132 -132 -67 -20 -10223 -20 -10290 0 -57 18 -114 75 -132 132
-19 65 -20 10223 0 10287 24 81 79 126 174 142 30 5 2225 8 5133 7 4248 -1
5087 -3 5120 -15z"/>
<path d="M1909 8387 c-19 -12 -45 -44 -59 -72 -22 -45 -25 -61 -24 -160 1 -60
11 -182 23 -270 37 -292 194 -1795 188 -1802 -1 -1 -49 -6 -107 -12 -133 -14
-185 -33 -206 -74 -16 -29 -15 -79 1 -118 5 -14 -20 -25 -145 -68 -325 -110
-416 -174 -390 -272 16 -58 67 -108 225 -222 312 -226 522 -481 634 -772 76
-199 103 -328 136 -646 15 -146 33 -272 44 -308 35 -112 99 -171 184 -171 58
0 92 20 118 72 33 64 33 118 0 348 -34 241 -46 338 -60 520 -18 220 -72 1162
-67 1167 11 11 412 -309 901 -717 901 -753 1071 -859 1373 -860 135 0 191 28
192 96 0 51 -33 74 -211 144 -333 132 -663 375 -1499 1105 -162 142 -373 320
-468 396 l-172 138 37 10 c21 6 160 42 308 81 910 240 1377 377 1583 468 176
76 265 159 248 229 -10 38 -81 83 -133 83 -53 0 -120 -32 -135 -65 -14 -30
-54 -44 -364 -125 -128 -33 -350 -94 -495 -136 -412 -119 -1203 -334 -1208
-328 -3 2 -11 71 -18 152 -13 134 -52 452 -133 1079 -43 337 -70 603 -70 695
l0 81 69 -66 c77 -75 96 -80 161 -47 43 22 70 63 70 107 0 22 -22 48 -107 130
-231 221 -332 271 -424 210z m171 -2702 c0 -23 55 -637 64 -717 2 -21 1 -38
-2 -38 -4 0 -28 33 -54 73 -114 174 -263 336 -432 467 l-108 85 33 13 c38 16
468 141 487 141 6 1 12 -10 12 -24z"/>
<path d="M6147 7719 c-119 -17 -187 -70 -187 -146 0 -76 41 -121 245 -270 166
-120 250 -192 318 -270 69 -81 208 -292 308 -468 101 -178 141 -225 191 -225
47 0 63 21 63 84 0 74 -38 180 -130 362 -127 252 -246 423 -409 592 l-80 82
90 0 c316 0 823 -109 1216 -261 697 -269 1341 -723 1625 -1144 130 -193 171
-381 126 -573 -21 -94 -100 -251 -175 -352 -184 -248 -526 -530 -938 -775
-112 -66 -480 -255 -498 -255 -5 0 -14 82 -21 183 -79 1171 -180 2065 -277
2450 -56 223 -102 290 -179 261 -46 -18 -84 -171 -85 -339 0 -125 13 -234 95
-805 124 -854 186 -1402 199 -1737 l4 -123 -81 -24 c-144 -43 -191 -55 -232
-58 -38 -3 -40 -1 -43 27 -6 49 16 131 81 295 34 89 62 177 65 206 4 46 2 53
-23 72 -35 27 -57 28 -112 1 -79 -38 -173 -171 -262 -367 -102 -227 -120 -345
-68 -435 42 -71 95 -92 227 -91 109 0 217 23 377 78 l72 24 6 -46 c15 -109 56
-162 124 -162 41 0 71 22 95 69 17 32 36 136 36 197 0 48 3 51 95 89 39 16
153 70 255 121 652 322 1163 713 1410 1079 69 102 145 262 172 360 30 113 30
316 -1 430 -28 105 -114 278 -193 389 -72 103 -261 303 -381 404 -625 528
-1659 969 -2502 1067 -141 16 -517 19 -618 4z"/>
<path d="M5700 4251 c-132 -43 -228 -148 -204 -224 18 -60 88 -96 187 -97 145
0 247 86 247 209 0 42 -5 56 -29 83 -27 30 -33 33 -102 35 -41 1 -85 -1 -99
-6z"/>
</g>
</svg>
