<?xml version="1.0" standalone="no"?>
<!DOCTYPE svg PUBLIC "-//W3C//DTD SVG 20010904//EN"
 "http://www.w3.org/TR/2001/REC-SVG-20010904/DTD/svg10.dtd">
<svg version="1.0" xmlns="http://www.w3.org/2000/svg"
 width="512.000000pt" height="512.000000pt" viewBox="0 0 512.000000 512.000000"
 preserveAspectRatio="xMidYMid meet">
<metadata>
Created by potrace 1.11, written by Peter Selinger 2001-2013
</metadata>
<g transform="translate(0.000000,512.000000) scale(0.100000,-0.100000)"
fill="#000000" stroke="none">
<path d="M1484 3735 c-25 -25 -25 -25 -18 -162 3 -76 7 -149 9 -163 1 -14 3
-31 4 -37 0 -7 10 -22 20 -32 19 -19 18 -20 -34 -65 -29 -25 -55 -43 -58 -40
-3 3 -3 17 -1 32 2 15 5 71 8 125 4 91 3 100 -19 124 -26 31 16 29 -440 18
-159 -4 -353 -8 -429 -10 -138 -2 -140 -3 -163 -29 -22 -26 -23 -35 -23 -185
0 -154 0 -158 25 -181 23 -22 29 -22 112 -16 48 4 99 8 113 9 l25 2 0 -465 0
-465 -99 0 c-95 -1 -100 -2 -122 -29 -23 -26 -24 -33 -23 -180 2 -156 6 -173
44 -193 11 -6 121 -14 250 -17 536 -15 640 -18 643 -21 2 -2 5 -22 7 -45 4
-44 27 -89 48 -91 6 -1 181 -2 387 -3 397 -2 421 0 435 44 8 27 -4 317 -15
346 -13 34 -42 44 -123 46 l-74 1 -41 61 c-22 34 -120 182 -217 330 l-178 269
44 41 c45 42 149 133 229 202 25 22 61 53 80 70 19 17 76 68 126 113 l92 81
109 0 c162 0 157 -11 168 296 5 158 4 172 -13 194 -10 13 -27 25 -38 26 -10 2
-120 6 -244 9 -124 3 -305 8 -403 10 l-178 5 -25 -25z m-255 -657 c-15 -13
-50 -42 -78 -66 l-50 -43 3 53 c3 29 5 56 5 60 1 8 27 12 96 16 l50 2 -26 -22z
m57 -745 c32 -54 85 -140 117 -191 32 -51 56 -96 53 -101 -3 -4 -27 -8 -54
-10 l-48 -2 1 38 c3 80 -21 100 -132 109 -43 4 -87 8 -98 9 -11 1 -26 3 -33 4
-9 1 -12 19 -11 65 l2 64 65 56 c36 31 69 56 73 56 3 0 33 -44 65 -97z"/>
<path d="M3747 3744 c-4 -4 -93 -7 -535 -18 -153 -4 -186 -14 -194 -58 -2 -13
-3 -98 -3 -190 1 -222 2 -223 184 -203 31 3 68 7 83 9 16 2 32 -2 36 -8 5 -6
8 -281 8 -611 l-1 -600 -87 -1 c-175 -3 -172 3 -154 -324 2 -41 7 -82 11 -91
15 -39 20 -39 510 -55 105 -3 206 -7 225 -8 19 -1 55 1 80 6 25 5 61 11 80 14
19 3 60 12 90 21 30 8 60 17 65 18 118 34 303 144 395 236 131 131 229 284
280 439 43 128 54 205 53 355 -1 139 -9 199 -39 303 -108 373 -446 677 -837
753 -56 11 -242 21 -250 13z m250 -522 c152 -58 279 -184 337 -332 51 -129 53
-301 6 -430 -77 -212 -275 -366 -490 -383 l-25 -2 2 185 c1 170 4 269 18 794
3 98 7 182 10 186 8 13 88 3 142 -18z"/>
<path d="M2363 2232 c-44 -7 -55 -43 -53 -185 3 -282 8 -456 15 -477 11 -36
62 -50 136 -40 35 5 87 12 114 15 28 3 64 8 80 10 17 2 57 7 90 11 82 9 113
26 120 67 3 17 4 104 1 192 -3 88 -6 198 -7 245 -1 49 -7 96 -15 112 -17 32
-37 36 -234 43 -80 4 -163 7 -185 8 -22 2 -50 1 -62 -1z"/>
</g>
</svg>
